<svg xmlns="http://www.w3.org/2000/svg" width="1756.7107" height="946.0387" viewBox="0 0 691.7048 878.0422"><path d="m -126.02845,550.70923 c -10.13623,0.35891 -20.27246,0.55831 -30.36209,0.55831 -10.12458,0 -20.29577,-0.1861 -30.4553,-0.55831 -85.52885,-2.67188 -153.68627,-16.45668 -202.75962,-36.11697 -23.06867,-8.8797 -42.81685,-19.32796 -58.0678,-31.27833 l 0,94.52623 0,6.64649 0,6.64647 0,17.13463 c 33.1583,39.49338 144.40055,75.91609 291.27107,75.91609 146.87053,0 258.11279,-36.42271 291.27109,-75.91609 l 0,-17.13463 0,-6.64647 0,-6.64649 0,-94.52623 c -15.35582,12.03013 -35.27875,22.55815 -58.545489,31.46443 -49.050063,19.56724 -117.067672,33.27228 -202.351861,35.93087 z m -319.96863,81.14145 0,109.01555 c 0,2.15346 0.50098,4.18728 1.36314,5.99513 13.75965,65.06903 136.86246,113.6415 289.90793,113.6415 152.6959511,0 275.60069,-48.37307 289.81472,-113.20284 0.93207,-1.91418 1.45636,-4.10752 1.45636,-6.43379 l 0,-108.98897 c -48.176239,38.69581 -147.441421,69.1101 -291.27108,69.1101 -143.84131,0 -243.10649,-30.44088 -291.27107,-69.13668 z M 134.9722,131.08783 C 121.89996,73.914811 21.376483,17.539371 -154.72601,17.539371 c -175.65976,0 -276.07837,56.09629 -289.5584,113.123079 -0.99032,1.95407 -1.71267,4.09424 -1.71267,6.51355 l 0,6.64648 0,24.00709 c 33.05344,39.36045 143.50343,75.69011 291.27107,75.69011 147.767644,0 258.22929,-36.32966 291.27108,-75.69011 l 0,-24.00709 0,-6.64648 c 0,-2.23321 -0.65245,-4.24045 -1.57287,-6.08817 z m -580.96928,58.63042 0,94.52623 0,6.64648 0,6.64648 0,17.13462 c 30.73492,36.60881 128.54375,70.58561 259.65068,75.34449 1.33985,0.0532 2.71465,0.0665 4.06615,0.10635 3.79817,0.11963 7.5847,0.23927 11.44113,0.30573 5.32443,0.10635 10.69547,0.15952 16.11311,0.15952 5.41764,0 10.78868,-0.0532 16.11312,-0.14622 3.84477,-0.0665 7.64295,-0.1861 11.44112,-0.30574 1.3515,-0.0399 2.7263,-0.0665 4.06614,-0.10635 131.1069452,-4.77217 228.91577,-38.74897 259.6507,-75.34449 l 0,-17.14791 0,-6.64648 0,-6.64648 0,-94.52623 c -56.704659,44.43836 -176.580179,67.94031 -291.27108,67.94031 -114.6909,0 -234.55477,-23.50195 -291.27107,-67.94031 z m 321.64481,213.95929 c -10.13623,0.35891 -20.27246,0.5583 -30.36209,0.5583 -10.12458,0 -20.29577,-0.1861 -30.4553,-0.5583 -85.52884,-2.67188 -153.68627,-16.45668 -202.75962,-36.11697 -23.06867,-8.8797 -42.81685,-19.32796 -58.0678,-31.27833 l 0,94.52623 0,6.64648 0,6.64648 0,17.13462 c 33.1583,39.49338 144.40054,75.91609 291.27107,75.91609 146.870529,0 258.11278,-36.42271 291.27108,-75.91609 l 0,-17.13462 0,-6.64648 0,-6.64648 0,-94.52623 c -15.35581,12.03013 -35.27876,22.55815 -58.545489,31.46443 -49.05005,19.56724 -117.06767,33.27228 -202.351851,35.93087 z" fill="#bdbdbd"/><path d="m -167.85602,132.8816 c 16.08927,-13.45432 54.29397,-35.080459 60.54769,20.93117 22.454365,144.86466 184.138381,246.10614 184.138381,388.93514 0,120.39617 -101.391738,217.99753 -226.465801,217.99753 -125.07178,0 -226.46348,-97.60136 -226.46348,-217.99753 0.002,-109.23677 45.54942,-273.81701 208.24321,-409.86631 z" fill="#4fc3f7"/><path d="m -185.02175,147.0517 c -80.48873,76.78412 -190.15014,179.65243 -198.63585,363.6812 -4.95,126.04306 86.37622,251.41633 236.58572,250.09208 119.975989,-1.05771 227.156101,-81.68327 223.096771,-203.22779 -0.63306,-18.95503 -62.070267,75.64095 -131.003576,61.8616 -65.398255,-13.07271 -121.339655,-74.52557 -146.463505,-136.30436 -42.25525,-103.9044 -15.49285,-249.26537 16.42044,-336.10273 z" fill="#039be5"/><path d="m 652.69376,493.61124 c -0.58143,-0.58136 -14.66007,-1.13246 -31.28584,-1.22435 -35.13749,-0.19452 -34.00882,0.16633 -53.33512,-17.05045 -22.95321,-20.44771 -70.34999,-66.31277 -81.90537,-79.25844 -6.647,-7.44664 -14.11151,-14.39137 -16.58781,-15.43255 l -4.50236,-1.89309 -5.35653,8.44939 c -16.56056,26.12257 -25.69814,39.57088 -30.21223,44.46523 -14.1795,15.37373 -30.0384,30.33097 -35.88623,33.84574 -10.94613,6.57925 -27.50099,11.56475 -49.92262,15.03449 -17.36103,2.68654 -21.89256,2.95476 -26.97153,1.5963 -3.35753,-0.89803 -8.28768,-1.63267 -10.9559,-1.63267 -7.44268,0 -7.23537,-2.39024 0.30517,-3.51831 9.36648,-1.40129 27.51669,-7.25481 39.27299,-12.66584 13.28946,-6.11662 41.26103,-27.42624 55.21479,-42.06424 12.44331,-13.05354 23.3601,-26.74897 23.3601,-29.30578 0,-2.08309 -1.80072,-2.10347 -3.86047,-0.0439 -2.88016,2.88008 -8.71428,-0.072 -18.63185,-9.42771 -11.11054,-10.4811 -10.88865,-10.47049 -22.94377,-1.09134 -7.25697,5.64606 -19.89191,13.02084 -43.57354,25.43309 -15.88812,8.32748 -23.56095,5.12816 -9.7399,-4.06111 10.19835,-6.78071 47.78203,-40.39777 47.78203,-42.7392 0,-1.04362 -6.0524,-7.83288 -13.44975,-15.0872 -7.55845,-7.41224 -13.44977,-14.35758 -13.44977,-15.85577 0,-3.16868 -0.25476,-3.23226 22.65222,5.64399 22.32085,8.64903 21.65564,8.5724 25.91395,2.98479 4.78638,-6.28051 12.30917,-22.33637 12.31057,-26.27445 6.1e-4,-1.72496 -1.91017,-6.15006 -4.24618,-9.83358 -5.25966,-8.29364 -5.31547,-9.58343 -0.35394,-8.18059 2.14134,0.60543 6.25904,0.97939 9.15042,0.83098 4.11468,-0.21119 6.72976,0.85481 12.03399,4.90551 3.72732,2.84644 8.21039,5.8293 9.96239,6.62856 1.75202,0.79927 3.18547,2.55632 3.18547,3.90455 0,1.34824 -6.44016,11.51181 -14.31148,22.58578 -13.79698,19.41056 -14.21688,20.22097 -11.68005,22.54447 1.44728,1.32551 7.21621,6.73995 12.81983,12.03225 l 10.18839,9.62211 2.91998,-4.76023 c 7.84647,-12.79166 17.38546,-44.69441 23.01246,-76.96419 2.81923,-16.1678 3.18498,-22.77037 3.00888,-54.31945 -0.16332,-29.25906 -0.58019,-36.29426 -2.24954,-37.9636 -1.78823,-1.78823 -3.92312,-1.69545 -16.77211,0.72895 -8.09768,1.5279 -18.22707,3.20484 -22.50976,3.72653 -4.28269,0.52168 -9.69476,1.74787 -12.02686,2.72485 l -4.24015,1.77632 11.31898,5.89404 c 10.50934,5.47245 19.10567,11.81595 19.10567,14.09867 0,0.53296 -4.30039,5.32197 -9.55641,10.64228 -9.17085,9.283 -9.44393,9.75683 -6.76862,11.74454 1.53328,1.13921 5.34518,2.7599 8.47088,3.60157 3.1257,0.84166 8.70274,3.06047 12.39343,4.93069 6.07689,3.07938 6.92338,4.13326 8.96728,11.164 2.58118,8.87895 2.02628,10.63237 -3.36474,10.63237 -2.1168,0 -5.28347,1.00495 -7.03704,2.23319 -3.0359,2.12642 -3.71796,1.89341 -14.26799,-4.87415 -6.09383,-3.90902 -13.99936,-8.5258 -17.56785,-10.2595 l -6.48815,-3.1522 -7.5202,5.7252 c -4.13612,3.14888 -8.93959,6.45706 -10.67439,7.35153 -1.73479,0.89446 -7.31076,4.77241 -12.39101,8.61764 -5.08026,3.84523 -15.76566,10.16824 -23.74534,14.05113 -24.95816,12.14456 -27.74632,11.19154 -7.98878,-2.73065 12.66706,-8.92588 38.7916,-34.6412 40.85263,-40.2127 0.86461,-2.33727 -0.2352,-3.58692 -6.45091,-7.32983 -9.59247,-5.77628 -21.80862,-16.06044 -21.80862,-18.35956 0,-2.04511 9.65211,-0.10422 29.35937,5.90369 12.87278,3.92437 14.03136,3.70728 19.45607,-3.64549 4.73956,-6.42409 4.5264,-8.50589 -1.74129,-17.00727 -4.21921,-5.72284 -5.8904,-7.0124 -8.14064,-6.28159 -7.21707,2.34383 -13.01391,2.1156 -19.8207,-0.78039 -12.00576,-5.1079 -36.14477,-19.0217 -35.63796,-20.54182 0.30476,-0.91411 12.84246,-1.51924 34.34028,-1.65744 28.49112,-0.18316 38.56457,-0.85692 63.5279,-4.24912 28.95872,-3.93513 29.69115,-4.11599 30.65174,-7.56904 1.57572,-5.66432 1.40898,-36.24853 -0.221,-40.5357 -1.83816,-4.83473 -10.32338,-13.26148 -13.35347,-13.26148 -5.51685,0 -19.13753,-8.10563 -19.13753,-11.3887 0,-0.54163 3.84106,-1.74046 8.53568,-2.66406 5.79787,-1.14067 10.05825,-3.01616 13.28272,-5.84726 2.89551,-2.5423 6.33075,-4.16754 8.80744,-4.1669 5.1383,0.001 40.96461,17.32695 46.24795,22.36549 3.48656,3.32503 3.85084,4.46066 3.03604,9.46479 -0.50925,3.12751 -2.05438,6.96059 -3.43363,8.51793 -3.10549,3.5065 -6.01443,12.32262 -6.53995,19.82069 -0.21832,3.11468 -0.79024,7.25579 -1.27094,9.20246 -0.52276,2.11695 -0.0658,4.6328 1.13708,6.26003 1.92051,2.59804 2.76936,2.64067 18.84156,0.94603 28.36002,-2.99025 36.95187,-5.05496 41.55918,-9.98711 3.81757,-4.08671 4.56039,-4.29639 15.12676,-4.26973 25.37204,0.0641 43.24461,5.41535 44.1368,13.21522 0.31261,2.73301 -0.6038,5.18215 -2.83152,7.56729 -5.45618,5.84172 -10.17649,7.50913 -20.80002,7.34741 -5.43057,-0.0826 -10.69704,0.35851 -11.70325,0.98038 -1.00622,0.62188 -17.46253,1.01383 -36.56959,0.87101 -19.10707,-0.14283 -38.23834,0.21395 -42.51395,0.79283 l -7.77381,1.05251 -1.08863,7.78671 c -0.59874,4.28268 -1.73815,10.97217 -2.53201,14.86552 -0.79388,3.89335 -2.09086,17.27231 -2.88218,29.73104 -0.79134,12.45871 -1.93954,28.38606 -2.55158,35.3941 -0.61202,7.00802 -0.67245,13.25763 -0.13421,13.888 2.6044,3.05055 50.47143,-40.46303 48.76175,-44.32693 -0.51681,-1.168 -6.1356,-6.64918 -12.48619,-12.18039 -10.52426,-9.16639 -16.56546,-16.53579 -14.91143,-18.18981 0.8985,-0.89851 26.90039,6.83258 35.67389,10.60682 l 7.24659,3.1174 3.87679,-4.64377 c 6.21309,-7.44228 6.30314,-11.08985 0.48714,-19.73239 -2.77976,-4.13071 -4.84206,-7.72244 -4.58287,-7.98162 0.25918,-0.25917 2.91954,0.20478 5.91194,1.03103 3.96947,1.09601 7.06575,1.04725 11.45022,-0.18032 l 6.00951,-1.68255 9.3527,7.34998 c 5.14397,4.04249 9.35268,7.78717 9.35268,8.3215 0,1.42156 -3.91338,6.87125 -11.68113,16.26684 -3.77152,4.56189 -6.61535,9.02154 -6.31967,9.91035 0.2957,0.88879 4.77406,4.05064 9.95191,7.02631 5.17785,2.97568 12.37267,8.08873 15.98852,11.36237 6.33009,5.731 6.53759,6.169 5.58722,11.79417 -0.89998,5.32688 -1.44637,5.9371 -6.19513,6.91895 -2.86443,0.59224 -5.84517,1.13244 -6.62384,1.20043 -0.77868,0.068 -2.68996,0.88253 -4.24729,1.8101 -2.65337,1.58034 -2.18571,2.30374 7.43276,11.4974 5.64536,5.39601 10.26428,10.70251 10.26428,11.79222 0,1.8472 -5.33002,7.44383 -23.71404,24.90019 -4.08801,3.88172 -7.43276,8.06291 -7.43276,9.29153 0,1.22862 6.95148,7.68766 15.44775,14.3533 17.14309,13.44953 26.2311,23.74661 28.54602,32.34365 1.44735,5.37491 1.29546,5.94138 -2.65208,9.88888 -3.0558,3.05581 -5.97899,4.38938 -10.81706,4.93461 -6.07538,0.68485 -7.04972,0.34645 -11.65377,-4.0478 -2.76326,-2.63736 -10.06412,-10.98448 -16.22415,-18.54914 -11.61138,-14.25921 -18.92794,-20.93218 -22.95094,-20.93218 -1.28693,0 -4.73081,2.14008 -7.65307,4.75572 -2.92225,2.61564 -7.54303,5.48901 -10.26837,6.38521 -2.72534,0.89621 -7.72785,3.21579 -11.11667,5.15464 -3.38883,1.93885 -8.32631,3.52514 -10.97218,3.52514 -5.11677,0 -6.15832,2.02525 -3.04095,5.91332 0.97334,1.21397 12.63159,10.85647 25.90725,21.42787 23.72299,18.89046 24.57406,19.41483 49.55174,30.52464 60.05432,26.7115 86.17018,39.32987 94.07873,45.45589 2.89637,2.24356 3.25421,3.20261 1.96957,5.27874 -0.86341,1.39532 -4.04888,2.97808 -7.07883,3.51721 -7.48992,1.33272 -23.9044,1.38885 -25.20704,0.0866 z m -139.709,-120.32213 c 9.54599,-7.26153 27.03315,-23.18099 27.03315,-24.60987 0,-0.78381 -6.03361,-7.73037 -13.40805,-15.4367 -12.07007,-12.61323 -16.76294,-19.82385 -14.42412,-22.16265 1.34363,-1.34366 22.49072,7.75071 34.13173,14.67845 12.59963,7.49823 11.62904,7.83016 23.56867,-8.06038 7.31007,-9.72905 8.0851,-12.68971 4.81799,-18.40493 -3.02013,-5.28314 -2.5732,-7.07632 1.76969,-7.1005 2.14135,-0.011 4.849,-0.66902 6.01701,-1.46019 1.75886,-1.19141 1.02927,-2.42163 -4.2473,-7.1618 -9.20924,-8.27306 -20.0477,-15.42708 -23.3412,-15.4066 -1.56773,0.01 -8.90282,4.50652 -16.30019,9.99283 -7.39736,5.48629 -20.77633,13.74729 -29.73104,18.35776 -25.01944,12.88164 -25.06914,12.92006 -25.89376,20.00864 -0.39223,3.37147 -2.43054,13.003 -4.52963,21.40333 -2.09909,8.40033 -3.46729,16.18342 -3.04048,17.29562 0.42681,1.11232 4.14895,3.94042 8.27141,6.28478 4.12248,2.34436 10.36234,6.79829 13.86635,9.89754 3.50402,3.09913 7.26644,5.66205 8.36095,5.69524 1.0945,0.0329 4.27997,-1.6816 7.07882,-3.81057 z m 277.81173,114.94967 c -9.91842,-8.34578 -13.52779,-31.17093 -7.71446,-48.78517 4.24244,-12.85438 4.78127,-19.36626 4.77016,-57.64654 -0.006,-18.51862 0.96591,-65.52488 2.15845,-104.45839 1.99109,-65.00524 1.91703,-98.09008 -0.29947,-133.77996 l -0.83469,-13.44003 -6.213,-6.21301 c -3.41715,-3.41714 -6.21301,-6.75413 -6.21301,-7.4155 0,-7.26725 38.22491,6.03945 49.37297,17.18752 5.32905,5.32905 5.58293,9.16856 1.60929,24.33945 -3.26968,12.48328 -9.31514,68.83721 -7.56725,70.53944 0.64986,0.63287 7.67426,3.07195 15.60979,5.42018 16.95298,5.01661 21.05841,6.98608 31.88962,15.29832 10.38751,7.97171 12.43635,11.02962 12.43635,18.56135 0,7.91867 -1.71184,10.95857 -7.2602,12.89275 -11.55217,4.02711 -19.81598,0.1086 -39.23451,-18.60405 l -15.06512,-14.5175 -0.97907,15.57341 c -2.92482,46.52177 -3.59885,75.57943 -3.11989,134.49753 0.50535,62.16307 0.39896,65.55959 -2.33942,74.67723 -3.06523,10.20591 -9.80036,19.47108 -14.15414,19.47108 -1.41692,0 -4.50051,-1.61912 -6.8524,-3.59811 z m 287.02261,-2.72498 c -0.6326,-0.6325 -28.0734,-2.22148 -37.7258,-2.18438 -5.1215,0.0195 -16.0873,-5.05347 -25.5585,-11.82406 -7.7326,-5.52782 -12.9169,-12.66902 -25.3248,-34.88326 -5.43662,-9.73329 -14.6423,-25.02356 -20.45707,-33.97828 -5.81478,-8.95472 -14.95204,-24.44829 -20.30502,-34.43015 l -9.73274,-18.14875 -2.50899,3.28327 c -1.37996,1.80584 -3.21239,6.62477 -4.07208,10.70869 -2.21608,10.5276 -18.43615,43.7533 -25.05761,51.32881 -3.06273,3.50403 -7.85571,9.87497 -10.65106,14.15756 -6.58373,10.08682 -12.30821,16.28007 -24.03447,26.00286 -15.59834,12.93334 -30.43409,18.64945 -41.31521,15.91849 -3.32149,-0.83372 -5.35289,-5.11144 -2.42727,-5.11144 2.08784,0 24.55441,-22.74546 34.1142,-34.53755 13.2248,-16.31313 31.05127,-43.57232 40.0276,-61.20792 7.68654,-15.10148 15.10743,-35.10585 13.587,-36.62625 -1.64698,-1.64706 -29.6658,4.88019 -33.90427,7.89829 -6.74008,4.79928 -18.07288,3.2989 -36.84933,-4.87872 -8.2856,-3.60861 -15.77145,-6.56118 -16.63522,-6.56118 -0.86376,0 -1.57048,-0.90621 -1.57048,-2.0139 0,-2.91664 5.47359,-4.31789 41.76503,-10.69191 17.90941,-3.14553 37.65931,-6.82953 43.88868,-8.1867 l 11.32611,-2.46759 2.36407,-14.15764 c 2.77226,-16.60219 6.15061,-54.25085 4.97374,-55.42773 -0.44737,-0.44738 -3.66467,0.15812 -7.14954,1.34553 -7.94708,2.70785 -12.39616,1.77679 -29.59871,-6.19416 -22.79455,-10.56204 -23.40216,-14.8337 -1.90984,-13.42665 11.99784,0.78546 16.1668,0.46207 25.60592,-1.98632 6.20115,-1.60849 11.90008,-3.54983 12.66435,-4.31408 1.95634,-1.95634 2.78862,-31.50422 1.57255,-55.83025 l -1.02614,-20.5269 -9.14774,-5.11571 c -5.03126,-2.81363 -9.47402,-5.96594 -9.87278,-7.00511 -1.92446,-5.01507 9.82027,-14.86004 17.72755,-14.86004 5.66732,0 34.36397,16.99379 38.4962,22.79697 5.01309,7.04023 5.70827,11.90196 2.68059,18.74654 -3.05383,6.90369 -5.58631,26.0391 -5.60358,42.3405 -0.0127,12.31479 -0.28362,12.08861 11.31451,9.45786 15.37831,-3.48819 16.68094,-4.10038 19.73343,-9.27396 2.82312,-4.78477 3.31122,-5.02675 8.26852,-4.09863 2.8975,0.54249 13.0685,3.85803 22.6021,7.36786 19.3943,7.13997 23.4854,10.47764 25.1868,20.54827 1.0131,5.99612 0.9525,6.11078 -6.974,13.20015 l -7.9959,7.15147 -1.367,11.2709 c -0.7519,6.19902 -3.5609,18.90817 -6.2424,28.24258 -2.6814,9.33443 -4.5486,17.2981 -4.1492,17.69706 1.7848,1.7831 18.3498,-0.27904 24.9094,-3.10091 7.0584,-3.03642 7.3206,-3.04658 16.5055,-0.63973 10.5659,2.76879 26.7902,11.82484 31.1779,17.40291 3.2925,4.18584 3.8882,12.11371 1.0848,14.44024 -1.0154,0.84273 -6.3631,2.07169 -11.8838,2.73104 -9.1714,1.09536 -11.4253,0.79138 -26.1152,-3.52181 -20.9101,-6.13962 -31.1819,-6.86432 -57.1337,-4.03091 -27.33811,2.98471 -56.2229,7.61753 -57.89042,9.28509 -1.66341,1.66342 23.61309,35.22934 58.48992,77.67213 2.8315,3.44583 17.8562,15.26611 34.0858,26.81621 35.076,24.9618 62.3015,45.39438 62.2719,46.7349 -0.037,1.69039 -1.9764,3.74688 -5.2682,5.58676 -2.9943,1.67367 -17.5505,2.52533 -18.9661,1.10964 z M 975.01527,301.43352 c 18.16587,-2.55003 21.22503,-3.82933 24.23106,-10.13307 5.00657,-10.4991 10.57257,-75.53749 6.46457,-75.53749 -0.8299,0 -7.67852,1.54184 -15.2193,3.42632 -7.54081,1.88448 -16.01218,3.80822 -18.82527,4.27498 -8.42293,1.39755 -9.82533,4.19565 -11.1591,22.26491 -0.65146,8.82537 -1.82769,20.82431 -2.61386,26.66435 -0.78619,5.84002 -1.79998,15.23715 -2.25292,20.88251 -0.96403,12.01598 -2.75137,11.26344 19.37482,8.15749 z m -244.7187,79.40755 c -3.84577,-3.84585 -4.81359,-5.93553 -4.81359,-10.39324 0,-3.06886 -0.8676,-8.46244 -1.92799,-11.98588 -2.42073,-8.0435 -1.14106,-16.62529 3.75625,-25.19061 8.476,-14.82437 17.91337,-56.53292 16.21038,-71.64189 -0.41241,-3.65895 -3.00678,-11.05154 -5.76527,-16.42802 -3.90762,-7.61618 -4.57904,-9.94284 -3.03973,-10.53353 6.99677,-2.68492 24.53387,12.36236 27.64809,23.72278 4.14547,15.12224 -0.92033,68.99651 -9.435,100.34023 -3.96425,14.5931 -6.28626,19.9209 -10.53285,24.1675 -3.90489,3.9049 -6.59554,3.44741 -12.10029,-2.05734 z"/><path d="m 1121.4134,581.98156 34.9505,0 0,192.22847 -34.9505,0 0,-192.22847 z m -62.0218,192.22847 q -3.8834,-11.37281 -8.0442,-22.46826 -4.1608,-11.09543 -8.0442,-22.74564 l -80.99677,0 q -3.8834,11.65021 -8.04418,23.02303 -3.88341,11.09544 -7.76682,22.19087 l -36.33756,0 q 10.81805,-30.78982 20.52657,-56.86412 9.70851,-26.07427 18.86225,-49.37469 9.4311,-23.30042 18.58485,-44.38176 9.15374,-21.08133 18.86225,-41.6079 l 33.00901,0 q 9.7085,20.52657 18.8622,41.6079 9.1538,21.08134 18.3075,44.38176 9.4311,23.30042 19.1396,49.37469 9.9859,26.0743 20.8039,56.86412 l -37.7244,0 z m -56.5868,-155.05875 q -6.37989,14.70146 -14.70147,35.7828 -8.0442,21.08132 -16.92055,45.76867 l 63.24402,0 q -8.8763,-24.68735 -17.1979,-46.04606 -8.3216,-21.35873 -14.4241,-35.50541 z M 858.09599,774.21003 q -7.21204,-11.09543 -16.64315,-23.30041 -9.43113,-12.20499 -19.97179,-23.57781 -10.26329,-11.37282 -21.35872,-21.63609 -11.09545,-10.2633 -21.9135,-17.75271 l 0,86.26702 -34.95065,0 0,-192.22847 34.95065,0 0,79.3324 q 9.15374,-9.15375 19.13963,-19.41704 9.9859,-10.54065 19.69441,-21.08132 9.98589,-10.81807 18.86224,-20.80396 8.87636,-9.9859 16.08838,-18.03008 l 41.88529,0 q -9.15374,10.54068 -19.41701,21.91349 -10.26329,11.37283 -21.08133,23.02305 -10.81806,11.37281 -21.91351,22.74564 -10.81805,11.37282 -21.35871,21.63612 11.65021,8.87634 23.5778,20.80393 12.20498,11.65022 23.85519,25.24212 11.65022,13.31454 22.19088,28.01599 10.81805,14.42406 19.69441,28.84813 l -41.33051,0 z m -235.81276,4.1608 q -19.69441,0 -33.84107,-5.54772 -14.14669,-5.82511 -23.57783,-16.08838 -9.15373,-10.26329 -13.59191,-24.13259 -4.43817,-13.8693 -4.43817,-30.51246 l 0,-120.10812 35.22802,0 0,116.77948 q 0,13.03716 2.77385,22.46829 3.05125,9.15372 8.3216,14.97883 5.54771,5.8251 12.75974,8.59897 7.48943,2.77385 16.64315,2.77385 9.15375,0 16.64316,-2.77385 7.48943,-2.77387 12.75976,-8.59897 5.54773,-5.82511 8.32158,-14.97883 3.05125,-9.43113 3.05125,-22.46829 l 0,-116.77948 35.22802,0 0,120.10812 q 0,16.64316 -4.71555,30.51246 -4.43818,13.8693 -13.86931,24.13259 -9.15374,10.26327 -23.57781,16.08838 -14.42407,5.54772 -34.11848,5.54772 z M 360.08413,677.95711 q 0,15.811 3.88342,28.84815 3.8834,12.75974 11.09544,21.91348 7.48943,8.87634 18.03008,13.86931 10.54067,4.99293 23.85521,4.99293 13.03712,0 23.5778,-4.99293 10.54065,-4.99297 17.7527,-13.86931 7.48943,-9.15374 11.37282,-21.91348 3.88342,-13.03715 3.88342,-28.84815 0,-15.81101 -3.88342,-28.57075 -3.88339,-13.03715 -11.37282,-21.9135 -7.21205,-9.15373 -17.7527,-14.14669 -10.54068,-4.99294 -23.5778,-4.99294 -13.31454,0 -23.85521,4.99294 -10.54065,4.99296 -18.03008,14.14669 -7.21204,9.15373 -11.09544,21.9135 -3.88342,12.75974 -3.88342,28.57075 z m 150.06584,0 q 0,24.68735 -7.48944,43.5496 -7.21204,18.86225 -19.97179,31.622 -12.48236,12.48237 -29.40292,18.86223 -16.92054,6.37989 -36.06016,6.37989 -19.13963,0 -36.33757,-6.37989 -16.92054,-6.37986 -29.6803,-18.86223 -12.48237,-12.75975 -19.97179,-31.622 -7.48941,-18.86225 -7.48941,-43.5496 0,-24.68736 7.48941,-43.27221 7.48942,-18.86224 20.24918,-31.622 13.03713,-12.75975 29.95769,-19.13964 16.92054,-6.37988 35.78279,-6.37988 18.86224,0 35.78278,6.37988 16.92054,6.37989 29.40292,19.13964 12.75975,12.75976 20.24917,31.622 7.48944,18.58485 7.48944,43.27221 z m -281.56412,70.17865 q 18.86225,0 27.4612,-6.37988 8.59898,-6.37989 8.59898,-18.03008 0,-6.93465 -3.05125,-11.9276 -2.77385,-4.99294 -8.32158,-8.87636 -5.27034,-4.1608 -13.03714,-7.48942 -7.76681,-3.60601 -17.7527,-6.93465 -9.9859,-3.60601 -19.41701,-7.76681 -9.15375,-4.43816 -16.36577,-10.81805 -6.93465,-6.37987 -11.37283,-15.25622 -4.1608,-8.87635 -4.1608,-21.35873 0,-26.07428 18.0301,-40.77572 18.03008,-14.97886 49.0973,-14.97886 18.03011,0 31.89939,4.1608 14.14669,3.8834 22.19088,8.59897 l -10.81805,28.29336 q -9.43112,-5.27034 -20.80395,-8.04419 -11.09543,-2.77388 -23.02303,-2.77388 -14.14669,0 -22.19088,5.82513 -7.76681,5.82509 -7.76681,16.36576 0,6.37988 2.49647,11.09544 2.77387,4.43817 7.48943,8.04421 4.99294,3.60601 11.37281,6.65725 6.65727,3.05124 14.42409,5.82511 13.5919,4.99293 24.13257,10.26328 10.81806,4.99295 18.03009,12.20498 7.48943,6.93464 11.37282,16.64315 3.88341,9.43113 3.88341,23.02305 0,26.07427 -18.58486,40.49834 -18.30747,14.14669 -53.81288,14.14669 -11.92759,0 -21.91348,-1.6643 -9.70853,-1.38695 -17.47532,-3.60604 -7.48944,-2.21908 -13.03716,-4.43817 -5.54771,-2.49647 -8.87634,-4.43818 l 10.26329,-28.57074 q 7.48941,4.16077 20.24917,8.32157 12.75975,4.16079 30.78984,4.16079 z" transform="matrix(.95386 0 0 .95386 53.359 17.3545)" font-weight="500" font-size="167.0625" font-family="UBUNTU" letter-spacing="0" word-spacing="0"/></svg>