<svg xmlns="http://www.w3.org/2000/svg" width="1756.7107" height="946.0387" viewBox="0 0 691.7048 878.0422"><path d="m -126.02845,550.70923 c -10.13623,0.35891 -20.27246,0.55831 -30.36209,0.55831 -10.12458,0 -20.29577,-0.1861 -30.4553,-0.55831 -85.52885,-2.67188 -153.68627,-16.45668 -202.75962,-36.11697 -23.06867,-8.8797 -42.81685,-19.32796 -58.0678,-31.27833 l 0,94.52623 0,6.64649 0,6.64647 0,17.13463 c 33.1583,39.49338 144.40055,75.91609 291.27107,75.91609 146.87053,0 258.11279,-36.42271 291.27109,-75.91609 l 0,-17.13463 0,-6.64647 0,-6.64649 0,-94.52623 c -15.35582,12.03013 -35.27875,22.55815 -58.545489,31.46443 -49.050063,19.56724 -117.067672,33.27228 -202.351861,35.93087 z m -319.96863,81.14145 0,109.01555 c 0,2.15346 0.50098,4.18728 1.36314,5.99513 13.75965,65.06903 136.86246,113.6415 289.90793,113.6415 152.6959511,0 275.60069,-48.37307 289.81472,-113.20284 0.93207,-1.91418 1.45636,-4.10752 1.45636,-6.43379 l 0,-108.98897 c -48.176239,38.69581 -147.441421,69.1101 -291.27108,69.1101 -143.84131,0 -243.10649,-30.44088 -291.27107,-69.13668 z M 134.9722,131.08783 C 121.89996,73.914811 21.376483,17.539371 -154.72601,17.539371 c -175.65976,0 -276.07837,56.09629 -289.5584,113.123079 -0.99032,1.95407 -1.71267,4.09424 -1.71267,6.51355 l 0,6.64648 0,24.00709 c 33.05344,39.36045 143.50343,75.69011 291.27107,75.69011 147.767644,0 258.22929,-36.32966 291.27108,-75.69011 l 0,-24.00709 0,-6.64648 c 0,-2.23321 -0.65245,-4.24045 -1.57287,-6.08817 z m -580.96928,58.63042 0,94.52623 0,6.64648 0,6.64648 0,17.13462 c 30.73492,36.60881 128.54375,70.58561 259.65068,75.34449 1.33985,0.0532 2.71465,0.0665 4.06615,0.10635 3.79817,0.11963 7.5847,0.23927 11.44113,0.30573 5.32443,0.10635 10.69547,0.15952 16.11311,0.15952 5.41764,0 10.78868,-0.0532 16.11312,-0.14622 3.84477,-0.0665 7.64295,-0.1861 11.44112,-0.30574 1.3515,-0.0399 2.7263,-0.0665 4.06614,-0.10635 131.1069452,-4.77217 228.91577,-38.74897 259.6507,-75.34449 l 0,-17.14791 0,-6.64648 0,-6.64648 0,-94.52623 c -56.704659,44.43836 -176.580179,67.94031 -291.27108,67.94031 -114.6909,0 -234.55477,-23.50195 -291.27107,-67.94031 z m 321.64481,213.95929 c -10.13623,0.35891 -20.27246,0.5583 -30.36209,0.5583 -10.12458,0 -20.29577,-0.1861 -30.4553,-0.5583 -85.52884,-2.67188 -153.68627,-16.45668 -202.75962,-36.11697 -23.06867,-8.8797 -42.81685,-19.32796 -58.0678,-31.27833 l 0,94.52623 0,6.64648 0,6.64648 0,17.13462 c 33.1583,39.49338 144.40054,75.91609 291.27107,75.91609 146.870529,0 258.11278,-36.42271 291.27108,-75.91609 l 0,-17.13462 0,-6.64648 0,-6.64648 0,-94.52623 c -15.35581,12.03013 -35.27876,22.55815 -58.545489,31.46443 -49.05005,19.56724 -117.06767,33.27228 -202.351851,35.93087 z" fill="#bdbdbd"/><path d="m -167.85602,132.8816 c 16.08927,-13.45432 54.29397,-35.080459 60.54769,20.93117 22.454365,144.86466 184.138381,246.10614 184.138381,388.93514 0,120.39617 -101.391738,217.99753 -226.465801,217.99753 -125.07178,0 -226.46348,-97.60136 -226.46348,-217.99753 0.002,-109.23677 45.54942,-273.81701 208.24321,-409.86631 z" fill="#4fc3f7"/><path d="m -185.02175,147.0517 c -80.48873,76.78412 -190.15014,179.65243 -198.63585,363.6812 -4.95,126.04306 86.37622,251.41633 236.58572,250.09208 119.975989,-1.05771 227.156101,-81.68327 223.096771,-203.22779 -0.63306,-18.95503 -62.070267,75.64095 -131.003576,61.8616 -65.398255,-13.07271 -121.339655,-74.52557 -146.463505,-136.30436 -42.25525,-103.9044 -15.49285,-249.26537 16.42044,-336.10273 z" fill="#039be5"/><path style="-inkscape-font-specification:Ubuntu" d="m 548.06055,661.54688 c -12.94921,-10e-6 -23.10706,3.02909 -30.47266,9.08789 -7.3656,6.0588 -11.04883,14.49388 -11.04883,25.30468 0,5.2272 0.83094,9.68244 2.49414,13.36524 1.782,3.6828 4.15891,6.89064 7.12891,9.62304 2.97,2.6136 6.47447,4.92962 10.51367,6.94922 4.0392,1.9008 8.31568,3.62357 12.83008,5.16797 3.92041,1.4256 7.60363,2.85175 11.04883,4.27735 3.564,1.4256 6.71291,3.14836 9.44531,5.16796 2.7324,1.90081 4.86966,4.21682 6.41406,6.94922 1.6632,2.6136 2.49414,5.82145 2.49414,9.62305 0,12.3552 -9.02833,18.5332 -27.08593,18.5332 -8.07841,0 -14.90859,-0.95076 -20.49219,-2.85156 -5.5836,-1.9008 -9.74221,-3.62357 -12.47461,-5.16797 l -5.16797,14.25586 c 1.3068,0.7128 3.0885,1.60463 5.3457,2.67383 2.376,0.9504 5.16936,1.89921 8.37696,2.84961 3.2076,0.8316 6.82994,1.54467 10.86914,2.13867 4.158,0.7128 8.67216,1.07031 13.54297,1.07031 14.3748,0 25.48341,-2.91122 33.32421,-8.73242 7.9596,-5.8212 11.93946,-14.13646 11.93946,-24.94726 0,-5.8212 -0.89183,-10.75181 -2.67383,-14.79102 -1.782,-4.158 -4.33571,-7.72141 -7.66211,-10.69141 -3.2076,-2.97 -7.06958,-5.52566 -11.58398,-7.66406 -4.3956,-2.1384 -9.26533,-4.27566 -14.61133,-6.41406 -3.8016,-1.4256 -7.30607,-2.85174 -10.51367,-4.27734 -3.0888,-1.4256 -5.82127,-2.96962 -8.19727,-4.63282 -2.376,-1.782 -4.21859,-3.80139 -5.52539,-6.05859 -1.3068,-2.2572 -1.95898,-5.05055 -1.95898,-8.37695 -10e-6,-2.97 0.59324,-5.52371 1.78124,-7.66211 1.3068,-2.2572 3.02957,-4.09784 5.16797,-5.52344 2.1384,-1.4256 4.63318,-2.49423 7.48438,-3.20703 2.85121,-0.7128 5.94118,-1.07032 9.26758,-1.07032 6.534,0 12.23467,0.77201 17.10547,2.31641 4.9896,1.4256 8.73176,2.91068 11.22656,4.45508 l 5.52539,-14.07813 c -2.8512,-1.9008 -7.36537,-3.62356 -13.54297,-5.16796 -6.0588,-1.6632 -12.83005,-2.49414 -20.31445,-2.49414 z m 114.09179,0 c -8.0784,0 -15.74148,1.3672 -22.98828,4.0996 -7.128,2.7324 -13.42387,6.83013 -18.88867,12.29493 -5.346,5.346 -9.62248,12.05832 -12.83008,20.13671 -3.0888,8.0784 -4.63281,17.40337 -4.63281,27.97657 0,10.5732 1.54401,19.90011 4.63281,27.97851 3.2076,8.0784 7.48408,14.84966 12.83008,20.31446 5.4648,5.346 11.76067,9.38478 18.88867,12.11718 7.2468,2.7324 14.90988,4.09961 22.98828,4.09961 7.9596,0 15.44393,-1.36721 22.45313,-4.09961 7.128,-2.7324 13.36494,-6.77118 18.71094,-12.11718 5.346,-5.4648 9.56353,-12.23606 12.65234,-20.31446 3.2076,-8.0784 4.81055,-17.40531 4.81055,-27.97851 0,-10.5732 -1.60295,-19.89817 -4.81055,-27.97657 -3.08881,-8.07839 -7.30634,-14.79071 -12.65234,-20.13671 -5.346,-5.4648 -11.58294,-9.56253 -18.71094,-12.29493 -7.0092,-2.7324 -14.49353,-4.0996 -22.45313,-4.0996 z m 83.28125,2.85156 0,77.51758 c 0,6.8904 0.88988,13.30414 2.67188,19.24414 1.9008,5.94 4.75309,11.1083 8.55469,15.5039 3.8016,4.2768 8.67132,7.66341 14.61132,10.15821 5.94,2.4948 12.94895,3.74218 21.02735,3.74218 8.0784,0 15.02841,-1.24738 20.84961,-3.74218 5.94,-2.4948 10.81168,-5.88141 14.61328,-10.15821 3.92041,-4.3956 6.77073,-9.5639 8.55273,-15.5039 1.9008,-5.94 2.85157,-12.35374 2.85157,-19.24414 l 0,-77.51758 -17.28516,0 0,75.55664 c 0,6.1776 -0.71307,11.52271 -2.13867,16.03711 -1.4256,4.3956 -3.445,8.01989 -6.0586,10.87109 -2.6136,2.8512 -5.76251,4.99042 -9.44531,6.41602 -3.564,1.3068 -7.54385,1.95898 -11.93945,1.95898 -8.7912,0 -15.91801,-2.7914 -21.38281,-8.375 -5.4648,-5.5836 -8.19727,-14.553 -8.19727,-26.9082 l 0,-75.55664 -17.28516,0 z m 123.40235,0 0,123.49218 17.28515,0 0,-58.62695 c 4.9896,3.0888 10.09898,6.83096 15.32618,11.22656 5.346,4.39561 10.57324,9.2064 15.68164,14.4336 5.2272,5.1084 10.15781,10.51439 14.79101,16.21679 4.6332,5.5836 8.73092,11.16641 12.29492,16.75 l 20.31446,0 c -3.2076,-5.5836 -7.24639,-11.46497 -12.11719,-17.64257 -4.752,-6.1776 -9.85942,-12.23578 -15.32422,-18.17578 -5.4648,-5.94 -11.04955,-11.5228 -16.75195,-16.75 -5.70241,-5.2272 -11.1084,-9.6235 -16.2168,-13.1875 4.3956,-4.2768 9.08853,-8.90884 14.07813,-13.89844 4.9896,-4.9896 9.97915,-10.04004 14.96875,-15.14844 5.1084,-5.2272 9.98008,-10.27568 14.61328,-15.14648 4.6332,-4.9896 8.79181,-9.50377 12.47461,-13.54297 l -20.84961,0 c -2.97,3.4452 -6.65323,7.48399 -11.04883,12.11718 -4.2768,4.5144 -8.8499,9.26626 -13.7207,14.25586 -4.8708,4.9896 -9.80142,9.97915 -14.79102,14.96875 -4.9896,4.8708 -9.56466,9.2671 -13.72266,13.1875 l 0,-54.52929 -17.28515,0 z m 153.80666,0 c -4.2768,8.91 -8.3745,17.93833 -12.2949,27.08594 -3.9204,9.0288 -7.9003,18.53251 -11.9395,28.51171 -3.9204,9.9792 -7.96114,20.5535 -12.11914,31.72071 -4.158,11.0484 -8.61323,23.10582 -13.36523,36.17382 l 18,0 11.22657,-31.54101 55.9531,0 c 1.9008,5.346 3.7434,10.63217 5.5254,15.85937 1.782,5.1084 3.6816,10.33564 5.7012,15.68164 l 18.8906,0 c -4.752,-13.06799 -9.2072,-25.12542 -13.3652,-36.17382 -4.158,-11.16721 -8.2577,-21.74151 -12.2969,-31.72071 -3.9204,-9.9792 -7.8394,-19.48292 -11.7598,-28.51171 -3.9204,-9.1476 -8.02,-18.17594 -12.2968,-27.08594 l -15.8594,0 z m 82.1699,0 0,123.49218 17.2852,0 0,-123.49218 -17.2852,0 z m -443.01758,12.29492 c 6.2964,0 11.94009,1.18845 16.92969,3.56445 4.9896,2.2572 9.20714,5.52398 12.65234,9.80078 3.564,4.2768 6.29647,9.50404 8.19727,15.68164 1.9008,6.0588 2.85156,12.83006 2.85156,20.31446 0,7.4844 -0.95076,14.31653 -2.85156,20.49414 -1.9008,6.0588 -4.63327,11.2271 -8.19727,15.5039 -3.4452,4.2768 -7.66274,7.60252 -12.65234,9.97852 -4.9896,2.2572 -10.63329,3.38477 -16.92969,3.38477 -6.2964,0 -11.99707,-1.12757 -17.10547,-3.38477 -4.9896,-2.376 -9.26803,-5.70172 -12.83203,-9.97852 -3.4452,-4.2768 -6.11678,-9.4451 -8.01758,-15.5039 -1.9008,-6.17761 -2.85156,-13.00974 -2.85156,-20.49414 0,-7.4844 0.95076,-14.25566 2.85156,-20.31446 1.9008,-6.1776 4.57238,-11.40484 8.01758,-15.68164 3.564,-4.2768 7.84243,-7.54358 12.83203,-9.80078 5.1084,-2.376 10.80907,-3.56445 17.10547,-3.56445 z m 368.33208,7.48437 c 4.0392,8.91 7.9011,18.23692 11.5839,27.97852 3.8016,9.6228 7.6027,19.6019 11.4043,29.9375 l -45.9765,0 c 3.6828,-10.3356 7.366,-20.3147 11.0488,-29.9375 3.8016,-9.7416 7.7815,-19.06852 11.9395,-27.97852 z" transform="translate(-541.6007 -436.7474) scale(1.50548)" font-weight="400" font-size="178.2" font-family="Ubuntu"/><path d="m 729.98592,517.02099 -10.593,-6.237 -9.306,-7.425 -8.019,-8.613 -6.732,-9.603 -5.445,-10.692 -4.059,-11.682 -0.46808,-2.23638 -0.0269,0.15738 -4.455,13.761 -6.237,12.375 -8.019,10.791 -9.702,9.306 -11.484,7.722 -12.969,6.138 -14.652,4.554 -16.13701,2.871 -0.297,-1.683 15.345,-4.752 13.56301,-5.841 11.781,-6.831 9.9,-7.821 8.217,-9.009 6.534,-10.098 4.851,-11.286 3.366,-12.474 1.683,-13.761 0.198,-15.147 0.0649,-0.002 -0.0649,-0.0973 0,-40.59 -69.30001,0 0,-3.96 69.30001,0 0,-28.71001 11.88,1.98 2.97,1.98 -2.97,1.782 0,22.96801 51.48,0 9.9,-9.90001 11.88,9.90001 0,3.96 -73.26,0 0,40.59 -0.1146,0.1719 -0.6774,16.0641 -0.65673,3.83935 4.12173,11.40665 4.95,10.39501 5.841,9.306 2.67039,3.1735 3.66561,-2.5795 5.148,-3.861 5.049,-3.96 4.95,-4.15801 4.653,-4.455 1.287,-1.287 -3.168,-3.762 -3.366,-3.564 -3.564,-3.564 -3.762,-3.564 -3.861,-3.564 0.891,-1.485 5.049,1.98 4.752,2.376 4.554,2.772 4.356,3.069 3.87243,3.22703 1.96857,-2.23703 4.257,-5.247 4.059,-5.544 3.40003,-4.93004 -0.0341,-0.02 1.089,-1.485 9.207,7.524 1.287,3.366 -3.81501,-0.25864 -2.22396,2.73368 -4.95,5.544 -5.049,5.148 -2.36204,2.13921 0.97604,1.02879 3.465,4.158 3.267,4.45501 2.97,4.653 0.396,4.455 -2.772,3.564 -4.554,0.396 -3.564,-2.772 -2.178,-4.455 -2.277,-4.257 -2.574,-4.158 -0.5775,-0.825 -0.9075,0.72599 -5.643,4.05901 -5.841,3.564 -5.94,3.168 -6.138,2.673 -3.76285,1.21569 2.47585,2.94231 7.722,6.93 8.613,5.94 9.603,4.851 10.692,3.762 11.682,2.871 8.91,1.881 -11.583,10.89 -12.969,-3.861 z m -86.427,-40.689 -2.574,-3.861 -1.10311,-1.45768 -3.45089,2.64568 -6.138,4.257 -6.336,3.861 -6.73201,3.663 -7.029,3.267 -7.227,2.871 -0.891,-1.683 6.336,-4.455 6.039,-4.455 5.84101,-4.554 5.544,-4.554 5.346,-4.752 3.11778,-3.05544 -2.02878,-2.29056 -3.168,-3.366 -3.366,-3.366 -3.465,-3.267 -3.46501,-3.366 0.89101,-1.485 4.653,1.782 4.455,2.178 4.257,2.475 4.158,2.871 2.74465,2.12711 1.01735,-1.03811 4.455,-5.148 4.257,-5.346 3.37825,-4.64511 -0.0123,-0.008 0.99,-1.386 9.009,7.821 1.188,3.366 -3.73247,-0.45047 -2.20753,2.52947 -5.049,5.346 -5.346,4.95 -0.6397,0.54831 1.2337,1.23369 3.465,3.762 3.366,4.059 3.069,4.158 0.693,4.455 -2.574,3.762 -4.455,0.693 -3.663,-2.574 -2.376,-4.158 z m 6.237,-51.381 -2.36074,-3.32252 -4.56926,3.91652 -5.94,4.455 -6.237,4.059 -6.633,3.762 -6.93001,3.366 -7.227,2.871 -0.891,-1.683 6.237,-4.455 5.94001,-4.554 5.643,-4.554 5.346,-4.653 5.049,-4.851 4.34433,-4.71407 -0.38433,-0.43393 -3.366,-3.366 -3.663,-3.267 -3.861,-3.168 -4.059,-3.168 -4.356,-3.267 0.693,-1.584 5.346,1.485 5.148,1.98 4.752,2.376 4.554,2.673 4.356,2.97 0.29927,0.24088 3.26473,-4.29988 3.663,-5.544 2.89471,-4.93804 -0.0237,-0.012 0.99,-1.683 9.603,7.02901 1.584,3.267 -3.88697,0 -1.95403,2.772 -4.554,5.643 -3.99954,4.3195 0.0395,0.0365 3.564,3.762 3.267,4.059 3.069,4.257 0.594,4.554 -2.673,3.564 -4.554,0.594 -3.564,-2.673 -2.178,-3.96 z m 81.18,1.386 -2.574,-3.663 -0.79607,-0.95529 -4.05493,3.52929 -5.643,4.356 -6.039,4.059 -6.237,3.861 -6.633,3.465 -6.93,2.97 -0.891,-1.485 5.841,-4.653 5.544,-4.653 5.445,-4.653 5.049,-4.653 4.752,-4.851 3.83494,-4.08506 -2.64694,-2.64694 -3.663,-3.366 -3.861,-3.267 -4.158,-3.366 -4.356,-3.366 0.792,-1.584 5.445,1.683 5.049,2.178 4.851,2.376 4.455,2.772 3.41187,2.32627 3.61713,-4.70227 3.663,-5.247 2.85001,-4.61032 -0.078,-0.0427 1.089,-1.584 9.405,7.32601 1.386,3.267 -3.73954,-0.12895 -1.80446,2.40595 -4.554,5.346 -4.12024,4.37775 1.05124,0.96825 3.564,3.663 3.267,3.861 3.069,4.158 0.693,4.455 -2.673,3.663 -4.455,0.693 -3.663,-2.673 -2.178,-3.861 z" transform="translate(-942.6018 -589.336) scale(2.07673)"/><path d="m 134.2269,124.20964 2.44417,6.78061 3.5,8.2 4,7.7 4.6,7.2 5.3,6.9 5.9,6.5 6.6,6.1 7.3,5.8 8,5.4 8.7,5 4.6,2.7 -11.2,8.8 -9.2,-6.2 -8.3,-6.5 -7.5,-6.9 -6.6,-7.4 -5.8,-7.7 -4.9,-8.1 -4,-8.5 -3,-8.8 -1.70512,-7.7583 -2.69488,11.0583 -4,11.1 -5.2,10.2 -6.4,9.3 -7.5,8.3 -8.700002,7.3 -9.7,6.3 -10.7,5.2 -11.8,4.2 -0.7,-1.7 10.8,-5.8 9.5,-6.4 8.5,-6.9 7.300002,-7.5 6.1,-8.1 5.1,-8.7 4.1,-9.4 2.9,-10.1 2,-10.9 0.56154,-7.3 -47.661542,0 0,-4 47.969232,0 0.0308,-0.4 0,-47.600002 -33.200002,0 0,-4 33.200002,0 0,-38 12,2 3,2 -3,1.8 0,32.2 25.8,0 6,-5 11,9 -5,4 0,44.000002 3.91818,0 8.18182,-9 10,9 0,4 -60.36614,0 z m -74.755832,-91.619392 3,2 -3,1.8 0,163.200002 -12,6 0,-175.000002 z m 101.100002,39 -25.8,0 0,48.000002 25.8,0 z m -139.000002,46.300002 -2.2,-4 1.1,-4.4 1.5,-1.6 1.6,-2.1 1.6,-2.5 1.6,-3 1.5,-3.500002 1.5,-3.8 1.5,-4.3 1.5,-4.7 1.6,-5.1 1.4,-5.5 1.8,0.2 0,5.8 -0.1,5.4 -0.3,5.1 -0.5,4.7 -0.6,4.5 -0.9,4.100002 -1,3.8 -1.2,3.6 -1.4,3.2 -1.6,3 -4,2.3 z m 55.1,-22.800002 -0.9,-2.7 -1,-2.9 -1.2,-2.9 -1.5,-3 -1.6,-3 -1.8,-3.2 -1.9,-3.3 -2.4,-3.2 1.3,-1.3 3.1,2.6 3.2,2.3 2.9,2.6 2.7,2.6 2.5,2.7 2.2,2.8 2.1,2.8 1.8,2.9 1.7,3 1.4,3.1 -0.6,4.500002 -3.5,2.9 -4.5,-0.5 -2.9,-3.5 -0.5,-2.600002 z" transform="translate(663.5281 73.9002) scale(2.05596)"/></svg>