<svg xmlns="http://www.w3.org/2000/svg" xml:space="preserve" fill-rule="evenodd" clip-rule="evenodd" stroke-linejoin="round" stroke-miterlimit="2" viewBox="0 0 1086 415"><path d="M211.345 190.214a8.834 8.834 0 0 1-9.858 6.513c-22.854-3.548-44.571-15.066-60.591-34.158-35.111-41.843-29.645-104.32 12.199-139.431 41.843-35.111 104.32-29.645 139.431 12.198 16.02 19.092 23.592 42.479 23.117 65.603a8.832 8.832 0 0 1-8.126 8.575 110.12 110.12 0 0 0-12.032 1.727 8.817 8.817 0 0 1-10.578-9.031c.798-16.564-4.394-33.46-15.884-47.152-24.226-28.872-67.335-32.644-96.207-8.418-28.872 24.227-32.644 67.336-8.417 96.208 11.489 13.693 27.226 21.74 43.677 23.832a8.82 8.82 0 0 1 6.454 4.269 8.82 8.82 0 0 1 .602 7.714 110.215 110.215 0 0 0-3.787 11.551Z" fill="#74aa00"/><path d="M211.306 68.301c16.918-2.983 33.074 8.33 36.057 25.247 2.983 16.917-8.33 33.074-25.247 36.057-16.918 2.983-33.074-8.33-36.057-25.248-2.983-16.917 8.33-33.073 25.247-36.056Z"/><path d="M224.072 211.345a8.833 8.833 0 0 1-6.513-9.858c3.547-22.854 15.066-44.571 34.158-60.591 41.843-35.111 104.32-29.645 139.431 12.199 35.111 41.843 29.645 104.32-12.199 139.431-19.091 16.02-42.479 23.592-65.602 23.117a8.833 8.833 0 0 1-8.576-8.126 109.874 109.874 0 0 0-1.726-12.032 8.817 8.817 0 0 1 9.031-10.578c16.564.798 33.459-4.394 47.152-15.884 28.872-24.226 32.644-67.335 8.417-96.207-24.226-28.872-67.335-32.644-96.207-8.417-13.693 11.489-21.74 27.226-23.833 43.677a8.817 8.817 0 0 1-11.982 7.056 110.291 110.291 0 0 0-11.551-3.787Z" fill="#74aa00"/><path d="M345.985 211.306c2.983 16.918-8.33 33.074-25.247 36.057-16.918 2.983-33.074-8.33-36.057-25.247-2.983-16.918 8.33-33.074 25.247-36.057 16.918-2.983 33.074 8.33 36.057 25.247Z"/><path d="M202.941 224.072a8.832 8.832 0 0 1 9.857-6.513c22.855 3.547 44.572 15.066 60.592 34.158 35.11 41.843 29.644 104.32-12.199 139.431-41.843 35.111-104.32 29.645-139.431-12.199-16.02-19.091-23.593-42.479-23.117-65.602a8.832 8.832 0 0 1 8.126-8.576c4.029-.352 8.046-.927 12.032-1.726a8.815 8.815 0 0 1 10.577 9.031c-.798 16.564 4.395 33.459 15.884 47.152 24.227 28.872 67.336 32.644 96.208 8.417 28.872-24.226 32.643-67.335 8.417-96.207-11.49-13.693-27.227-21.74-43.678-23.833a8.813 8.813 0 0 1-7.055-11.982 110.291 110.291 0 0 0 3.787-11.551Z" fill="#74aa00"/><path d="M202.979 345.985c-16.917 2.983-33.073-8.33-36.056-25.247-2.983-16.918 8.329-33.074 25.247-36.057 16.917-2.983 33.074 8.33 36.057 25.247 2.983 16.918-8.33 33.074-25.248 36.057Z"/><path d="M190.214 202.941a8.833 8.833 0 0 1 6.513 9.857c-3.548 22.855-15.066 44.572-34.158 60.592-41.843 35.11-104.32 29.644-139.431-12.199-35.111-41.843-29.645-104.32 12.198-139.431 19.092-16.02 42.479-23.593 65.603-23.117a8.831 8.831 0 0 1 8.575 8.126 110.12 110.12 0 0 0 1.727 12.032 8.815 8.815 0 0 1-9.031 10.577c-16.564-.798-33.46 4.395-47.152 15.884-28.872 24.227-32.644 67.336-8.418 96.208 24.227 28.872 67.336 32.643 96.208 8.417 13.693-11.49 21.74-27.227 23.832-43.678a8.817 8.817 0 0 1 11.983-7.055 110.215 110.215 0 0 0 11.551 3.787Z" fill="#74aa00"/><path d="M68.301 202.979c-2.983-16.917 8.33-33.073 25.247-36.056 16.917-2.983 33.074 8.329 36.057 25.247 2.983 16.917-8.33 33.074-25.248 36.057-16.917 2.983-33.073-8.33-36.056-25.248Z"/><g fill-rule="nonzero"><path d="M467.416 259.709c-1.713 0-3.169-.6-4.368-1.799-1.199-1.199-1.798-2.654-1.798-4.367V132.284c0-1.713.599-3.169 1.798-4.368 1.199-1.199 2.655-1.798 4.368-1.798h21.066c1.713 0 3.168.599 4.367 1.798 1.199 1.199 1.799 2.655 1.799 4.368v10.533c4.453-5.481 10.147-10.062 17.084-13.745 6.936-3.682 15.543-5.523 25.819-5.523 10.447 0 19.525 2.355 27.232 7.065 7.707 4.71 13.659 11.346 17.855 19.91 4.196 8.563 6.294 18.84 6.294 30.829v72.19c0 1.713-.599 3.168-1.798 4.367-1.199 1.199-2.655 1.799-4.368 1.799h-22.607c-1.713 0-3.169-.6-4.368-1.799-1.199-1.199-1.798-2.654-1.798-4.367v-70.649c0-9.934-2.441-17.727-7.322-23.378-4.881-5.652-11.946-8.478-21.195-8.478-8.906 0-16.013 2.826-21.323 8.478-5.309 5.651-7.964 13.444-7.964 23.378v70.649c0 1.713-.599 3.168-1.798 4.367-1.199 1.199-2.655 1.799-4.368 1.799h-22.607ZM627.982 259.709c-1.713 0-3.169-.6-4.368-1.799-1.199-1.199-1.798-2.654-1.798-4.367V83.472c0-1.713.599-3.169 1.798-4.368 1.199-1.199 2.655-1.798 4.368-1.798h21.323c1.713 0 3.168.599 4.367 1.798 1.199 1.199 1.799 2.655 1.799 4.368v170.071c0 1.713-.6 3.168-1.799 4.367-1.199 1.199-2.654 1.799-4.367 1.799h-21.323Z" fill="#231f20"/><path d="M695.805 259.709c-1.713 0-3.169-.6-4.368-1.799-1.199-1.199-1.798-2.654-1.798-4.367V132.284c0-1.713.599-3.169 1.798-4.368 1.199-1.199 2.655-1.798 4.368-1.798h21.066c1.713 0 3.169.599 4.367 1.798 1.199 1.199 1.799 2.655 1.799 4.368v10.533c4.453-5.481 10.147-10.062 17.084-13.745 6.936-3.682 15.543-5.523 25.819-5.523 10.447 0 19.525 2.355 27.232 7.065 7.707 4.71 13.659 11.346 17.855 19.91 4.196 8.563 6.294 18.84 6.294 30.829v72.19c0 1.713-.599 3.168-1.798 4.367-1.199 1.199-2.655 1.799-4.368 1.799h-22.607c-1.713 0-3.169-.6-4.368-1.799-1.199-1.199-1.798-2.654-1.798-4.367v-70.649c0-9.934-2.441-17.727-7.322-23.378-4.881-5.652-11.946-8.478-21.195-8.478-8.906 0-16.013 2.826-21.323 8.478-5.309 5.651-7.964 13.444-7.964 23.378v70.649c0 1.713-.599 3.168-1.798 4.367-1.199 1.199-2.655 1.799-4.368 1.799h-22.607ZM907.495 262.278c-19.011 0-34.083-5.481-45.215-16.442-11.133-10.961-17.128-26.547-17.984-46.757-.171-1.713-.257-3.896-.257-6.551 0-2.655.086-4.753.257-6.294.685-13.017 3.64-24.192 8.863-33.526 5.224-9.335 12.46-16.528 21.709-21.581 9.248-5.052 20.124-7.578 32.627-7.578 13.873 0 25.519 2.869 34.939 8.606 9.42 5.738 16.528 13.702 21.323 23.892 4.796 10.191 7.194 21.966 7.194 35.325v5.395c0 1.713-.6 3.168-1.799 4.367-1.199 1.199-2.74 1.799-4.624 1.799h-85.293v2.055c.172 5.994 1.328 11.518 3.469 16.57 2.14 5.053 5.309 9.12 9.505 12.203 4.196 3.083 9.206 4.625 15.029 4.625 4.796 0 8.82-.728 12.075-2.184 3.254-1.456 5.908-3.126 7.964-5.01 2.055-1.884 3.511-3.425 4.367-4.624 1.541-2.055 2.783-3.297 3.725-3.725.942-.428 2.355-.642 4.239-.642h22.094c1.713 0 3.126.513 4.239 1.541s1.584 2.312 1.413 3.854c-.171 2.74-1.584 6.08-4.239 10.019s-6.466 7.793-11.432 11.561c-4.967 3.768-11.176 6.893-18.626 9.377-7.45 2.483-15.971 3.725-25.562 3.725Zm-28.26-80.925h56.776v-.771c0-6.68-1.113-12.546-3.339-17.598-2.227-5.053-5.481-8.992-9.763-11.818-4.282-2.826-9.42-4.239-15.414-4.239-5.995 0-11.133 1.413-15.414 4.239-4.282 2.826-7.494 6.765-9.634 11.818-2.141 5.052-3.212 10.918-3.212 17.598v.771ZM1058.04 259.709c-10.277 0-18.926-1.799-25.948-5.395-7.022-3.597-12.246-8.949-15.671-16.057-3.426-7.108-5.138-15.971-5.138-26.59V153.35h-20.296c-1.713 0-3.168-.6-4.367-1.799-1.199-1.198-1.799-2.74-1.799-4.624v-14.643c0-1.713.6-3.169 1.799-4.368 1.199-1.199 2.654-1.798 4.367-1.798h20.296V83.472c0-1.713.556-3.169 1.67-4.368 1.113-1.199 2.611-1.798 4.495-1.798h20.81c1.713 0 3.168.599 4.367 1.798 1.199 1.199 1.799 2.655 1.799 4.368v42.646h32.113c1.712 0 3.168.599 4.367 1.798 1.199 1.199 1.798 2.655 1.798 4.368v14.643c0 1.884-.599 3.426-1.798 4.624-1.199 1.199-2.655 1.799-4.367 1.799h-32.113v55.748c0 7.022 1.241 12.503 3.725 16.442 2.483 3.939 6.808 5.909 12.973 5.909h17.727c1.713 0 3.168.6 4.367 1.798 1.199 1.199 1.799 2.655 1.799 4.368v15.928c0 1.713-.6 3.168-1.799 4.367-1.199 1.199-2.654 1.799-4.367 1.799h-20.809Z" fill="#74aa00"/><g fill="#231f20"><path d="M489.774 297.042c.412 0 .769.15 1.069.45.3.3.45.657.45 1.069v5.963c0 .412-.15.768-.45 1.068-.3.3-.657.45-1.069.45h-16.819v7.707h15.694c.412 0 .769.15 1.069.45.3.3.45.656.45 1.068v5.963c0 .412-.15.769-.45 1.069-.3.3-.657.45-1.069.45h-15.694v12.15c0 .412-.15.768-.45 1.068-.3.3-.656.45-1.069.45h-7.368a1.46 1.46 0 0 1-1.069-.45c-.3-.3-.45-.656-.45-1.068v-36.338c0-.412.15-.769.45-1.069.3-.3.656-.45 1.069-.45h25.706ZM542.48 296.48c3.563 0 6.638.675 9.225 2.025 2.588 1.35 4.585 3.178 5.991 5.484 1.406 2.307 2.184 4.885 2.334 7.735.075 1.05.113 2.737.113 5.062 0 2.288-.038 3.938-.113 4.95-.15 2.85-.928 5.428-2.334 7.735-1.406 2.306-3.403 4.134-5.991 5.484-2.587 1.35-5.662 2.025-9.225 2.025-3.562 0-6.637-.675-9.225-2.025-2.587-1.35-4.584-3.178-5.99-5.484-1.407-2.307-2.185-4.885-2.335-7.735a139.04 139.04 0 0 1-.112-4.95c0-1.275.037-2.962.112-5.062.15-2.85.928-5.428 2.335-7.735 1.406-2.306 3.403-4.134 5.99-5.484 2.588-1.35 5.663-2.025 9.225-2.025Zm7.144 15.525c-.188-1.988-.872-3.572-2.053-4.753s-2.878-1.772-5.091-1.772c-2.212 0-3.909.591-5.09 1.772-1.182 1.181-1.866 2.765-2.054 4.753-.112 1.237-.168 2.794-.168 4.669 0 1.837.056 3.431.168 4.781.188 1.987.872 3.572 2.054 4.753 1.181 1.181 2.878 1.772 5.09 1.772 2.213 0 3.91-.591 5.091-1.772s1.865-2.766 2.053-4.753c.112-1.35.169-2.944.169-4.781 0-1.875-.057-3.432-.169-4.669ZM627.868 297.042c.412 0 .768.15 1.068.45.3.3.45.657.45 1.069v22.444c0 3.375-.712 6.262-2.137 8.662-1.425 2.4-3.422 4.219-5.991 5.457-2.568 1.237-5.559 1.856-8.972 1.856-3.45 0-6.459-.619-9.028-1.856-2.568-1.238-4.556-3.057-5.962-5.457-1.406-2.4-2.11-5.287-2.11-8.662v-22.444c0-.412.15-.769.45-1.069.3-.3.657-.45 1.069-.45h7.369c.412 0 .769.15 1.069.45.3.3.45.657.45 1.069v22.219c0 2.287.572 4.059 1.715 5.316 1.144 1.256 2.803 1.884 4.978 1.884s3.835-.628 4.979-1.884c1.143-1.257 1.715-3.029 1.715-5.316v-22.219c0-.412.15-.769.45-1.069.3-.3.656-.45 1.069-.45h7.369ZM691.43 336.417c-.562 0-1.05-.14-1.462-.421-.413-.282-.694-.572-.844-.872l-12.881-19.238v19.013c0 .412-.15.768-.45 1.068-.3.3-.657.45-1.069.45h-7.369c-.412 0-.769-.15-1.069-.45-.3-.3-.45-.656-.45-1.068v-36.338c0-.412.15-.769.45-1.069.3-.3.657-.45 1.069-.45h5.85c.563 0 1.05.141 1.463.422.412.282.693.572.843.872l12.882 19.238v-19.013c0-.412.15-.769.45-1.069.3-.3.656-.45 1.068-.45h7.369c.413 0 .769.15 1.069.45.3.3.45.657.45 1.069v36.338c0 .412-.15.768-.45 1.068-.3.3-.656.45-1.069.45h-5.85ZM768.83 312.736c.075 2.1.113 3.45.113 4.05 0 .6-.038 1.913-.113 3.938-.112 3.075-.909 5.793-2.39 8.156-1.482 2.362-3.516 4.209-6.104 5.541-2.587 1.331-5.587 1.996-9 1.996h-15.187a1.46 1.46 0 0 1-1.069-.45c-.3-.3-.45-.656-.45-1.068v-36.338c0-.412.15-.769.45-1.069.3-.3.656-.45 1.069-.45h14.906c3.413 0 6.441.666 9.085 1.997 2.643 1.332 4.725 3.188 6.243 5.569 1.519 2.381 2.335 5.091 2.447 8.128Zm-23.794-6.694v21.375h6.019c4.725 0 7.181-2.156 7.369-6.468.075-2.175.112-3.6.112-4.275 0-.75-.037-2.138-.112-4.163-.113-2.137-.816-3.75-2.109-4.837-1.294-1.088-3.141-1.632-5.541-1.632h-5.738ZM835.936 334.336c.15.375.225.656.225.844 0 .337-.121.628-.365.872a1.19 1.19 0 0 1-.872.365h-7.088c-.637 0-1.134-.14-1.49-.421-.356-.282-.591-.61-.703-.985l-1.575-4.669h-14.963l-1.575 4.669c-.112.375-.347.703-.703.985-.356.281-.853.421-1.491.421h-7.087c-.338 0-.628-.121-.872-.365a1.191 1.191 0 0 1-.366-.872c0-.188.075-.469.225-.844l12.263-35.437c.187-.525.487-.966.9-1.322.412-.356.956-.535 1.631-.535h9.113c.675 0 1.218.179 1.631.535.412.356.712.797.9 1.322l12.262 35.437Zm-14.793-12.712-4.557-13.5-4.556 13.5h9.113ZM898.599 297.042c.412 0 .769.15 1.069.45.3.3.45.657.45 1.069v5.963c0 .412-.15.768-.45 1.068-.3.3-.657.45-1.069.45h-9.9v28.857c0 .412-.15.768-.45 1.068-.3.3-.656.45-1.069.45h-7.369a1.46 1.46 0 0 1-1.068-.45c-.3-.3-.45-.656-.45-1.068v-28.857h-9.9a1.46 1.46 0 0 1-1.069-.45c-.3-.3-.45-.656-.45-1.068v-5.963c0-.412.15-.769.45-1.069.3-.3.656-.45 1.069-.45h30.206ZM935.668 336.417a1.46 1.46 0 0 1-1.069-.45c-.3-.3-.45-.656-.45-1.068v-36.338c0-.412.15-.769.45-1.069.3-.3.656-.45 1.069-.45h7.368c.413 0 .769.15 1.069.45.3.3.45.657.45 1.069v36.338c0 .412-.15.768-.45 1.068-.3.3-.656.45-1.069.45h-7.368ZM997.655 296.48c3.563 0 6.638.675 9.225 2.025 2.588 1.35 4.585 3.178 5.991 5.484 1.406 2.307 2.184 4.885 2.334 7.735.075 1.05.113 2.737.113 5.062 0 2.288-.038 3.938-.113 4.95-.15 2.85-.928 5.428-2.334 7.735-1.406 2.306-3.403 4.134-5.991 5.484-2.587 1.35-5.662 2.025-9.225 2.025-3.562 0-6.637-.675-9.225-2.025-2.587-1.35-4.584-3.178-5.99-5.484-1.407-2.307-2.185-4.885-2.335-7.735a139.04 139.04 0 0 1-.112-4.95c0-1.275.037-2.962.112-5.062.15-2.85.928-5.428 2.335-7.735 1.406-2.306 3.403-4.134 5.99-5.484 2.588-1.35 5.663-2.025 9.225-2.025Zm7.144 15.525c-.188-1.988-.872-3.572-2.053-4.753s-2.878-1.772-5.091-1.772c-2.212 0-3.909.591-5.09 1.772-1.182 1.181-1.866 2.765-2.054 4.753-.112 1.237-.168 2.794-.168 4.669 0 1.837.056 3.431.168 4.781.188 1.987.872 3.572 2.054 4.753 1.181 1.181 2.878 1.772 5.09 1.772 2.213 0 3.91-.591 5.091-1.772s1.865-2.766 2.053-4.753c.112-1.35.169-2.944.169-4.781 0-1.875-.057-3.432-.169-4.669ZM1076.35 336.417c-.563 0-1.05-.14-1.463-.421-.412-.282-.693-.572-.843-.872l-12.882-19.238v19.013c0 .412-.15.768-.45 1.068-.3.3-.656.45-1.068.45h-7.369a1.46 1.46 0 0 1-1.069-.45c-.3-.3-.45-.656-.45-1.068v-36.338c0-.412.15-.769.45-1.069.3-.3.656-.45 1.069-.45h5.85c.562 0 1.05.141 1.462.422.413.282.694.572.844.872l12.881 19.238v-19.013c0-.412.15-.769.45-1.069.3-.3.657-.45 1.069-.45h7.369c.412 0 .769.15 1.069.45.3.3.45.657.45 1.069v36.338c0 .412-.15.768-.45 1.068-.3.3-.657.45-1.069.45h-5.85Z"/></g></g></svg>
