<svg xmlns="http://www.w3.org/2000/svg" fill="none" viewBox="0 0 134.973 120.777"><g fill="#000"><path d="M28.639 113.797 1.866 67.343a13.894 13.894 0 0 1 0-13.91L28.639 6.967A13.94 13.94 0 0 1 40.702 0h53.545c4.964 0 9.574 2.648 12.063 6.967l26.797 46.442a13.894 13.894 0 0 1 0 13.91l-26.785 46.49a13.941 13.941 0 0 1-12.063 6.968H40.726a13.962 13.962 0 0 1-12.087-6.98Z" class="fills" fill="#7c4dff"/><path d="M40.506 51.444h55.095c.695 0 1.244-.561 1.244-1.244V39.864c0-6.869-5.574-12.446-12.441-12.446H51.325c-9.623-.012-17.417 7.785-17.417 17.413a6.576 6.576 0 0 0 6.598 6.613Zm5.404 45.66h32.92c9.94 0 18.015-8.077 18.015-18.022a6.012 6.012 0 0 0-6.013-6.016H35.103a1.19 1.19 0 0 0-1.195 1.196v10.811c-.012 6.65 5.379 12.031 12.002 12.031Z" class="fills" fill="#f7f7f7"/><path d="m36.347 50.077 41.092 41.109a6.955 6.955 0 0 0 9.843 0l7.123-7.126a6.961 6.961 0 0 0 0-9.847L53.326 33.104a6.955 6.955 0 0 0-9.843 0l-7.124 7.126c-2.744 2.721-2.744 7.139-.012 9.847Z" class="fills" fill="#f7f7f7"/><path d="M78.11 91.882 53.972 73.066h5.342ZM52.643 32.421l19.015 19.023h6.452Z" class="fills" fill="#444" opacity=".3"/></g></svg>
