<svg xmlns="http://www.w3.org/2000/svg" fill="none" viewBox="0 0 88.316 123.673"><g fill="#000"><path d="M41.408 2.995C44.492.409 51.817-3.747 53.015 7.018c4.305 27.84 35.301 47.296 35.301 74.745 0 23.137-19.437 41.894-43.415 41.894-23.978 0-43.415-18.757-43.415-41.894 0-20.993 8.732-52.622 39.922-78.768Z" class="fills" fill="#4fc3f7"/><path d="M38.117 5.718C22.687 20.475 1.664 40.244.037 75.61c-.949 24.223 16.559 48.317 45.355 48.063 23.001-.204 43.548-15.698 42.77-39.056-.121-3.643-11.899 14.536-25.115 11.888C50.51 93.993 39.786 82.183 34.969 70.31c-8.101-19.968-2.97-47.903 3.148-64.592Z" class="fills" fill="#039be5"/></g></svg>
