<svg xmlns="http://www.w3.org/2000/svg" fill="none" viewBox="0 0 584.218 842.963"><g fill="#000"><path d="M321.645 533.17a858.508 858.508 0 0 1-30.362.558c-10.125 0-20.296-.186-30.456-.558-85.528-2.672-153.686-16.457-202.759-36.117-23.069-8.88-42.817-19.328-58.068-31.278v124.953c33.158 39.494 144.401 75.916 291.271 75.916 146.871 0 258.113-36.422 291.271-75.916V465.775c-15.356 12.03-35.279 22.558-58.545 31.464-49.05 19.567-117.068 33.272-202.352 35.931ZM1.676 614.311v109.016c0 2.153.501 4.187 1.363 5.995 13.76 65.069 136.863 113.641 289.908 113.641 152.696 0 275.601-48.373 289.815-113.202a14.69 14.69 0 0 0 1.456-6.434V614.338c-48.176 38.696-147.441 69.11-291.271 69.11-143.841 0-243.106-30.441-291.271-69.137Zm580.969-500.763C569.573 56.375 469.05 0 292.947 0 117.287 0 16.869 56.096 3.389 113.123c-.99 1.954-1.713 4.094-1.713 6.514V150.29c33.054 39.361 143.504 75.69 291.271 75.69 147.768 0 258.23-36.329 291.271-75.69V119.637c0-2.234-.652-4.241-1.573-6.089ZM1.676 172.179V297.133c30.735 36.608 128.544 70.585 259.651 75.344 1.34.053 2.715.067 4.066.107 3.798.119 7.585.239 11.441.305 5.325.107 10.696.16 16.113.16 5.418 0 10.789-.053 16.113-.146 3.845-.067 7.643-.187 11.441-.306 1.352-.04 2.727-.067 4.067-.107 131.107-4.772 228.915-38.749 259.65-75.344V172.179c-56.704 44.438-176.58 67.94-291.271 67.94S58.392 216.617 1.676 172.179Zm321.645 213.959a858.464 858.464 0 0 1-30.362.558c-10.125 0-20.296-.186-30.455-.558-85.529-2.672-153.687-16.457-202.76-36.117-23.069-8.88-42.817-19.328-58.068-31.278V443.697c33.158 39.493 144.401 75.916 291.271 75.916 146.871 0 258.113-36.423 291.271-75.916V318.743c-15.355 12.03-35.278 22.558-58.545 31.464-49.05 19.568-117.068 33.273-202.352 35.931Z" class="fills" fill="#bdbdbd"/><path d="M279.817 115.342c16.09-13.454 54.294-35.08 60.548 20.931 22.454 144.865 184.138 246.107 184.138 388.936 0 120.396-101.391 217.997-226.465 217.997-125.072 0-226.464-97.601-226.464-217.997.002-109.237 45.549-273.817 208.243-409.867Z" class="fills" fill="#4fc3f7"/><path d="M262.652 129.512C182.163 206.296 72.501 309.165 64.016 493.194c-4.95 126.043 86.376 251.416 236.585 250.092 119.976-1.058 227.156-81.684 223.097-203.228-.633-18.955-62.07 75.641-131.003 61.861-65.399-13.072-121.34-74.525-146.464-136.304-42.255-103.904-15.493-249.265 16.421-336.103Z" class="fills" fill="#039be5"/></g></svg>
